<?xml version="1.0" encoding="utf-8" ?>
<svg xmlns="http://www.w3.org/2000/svg" xmlns:xlink="http://www.w3.org/1999/xlink" width="1112" height="1285">
	<path fill="#DA6D58" transform="scale(2.16673 2.16673)" d="M217.054 80.2849C212.742 77.4367 209.874 72.6138 208.853 67.5947C207.7 61.9298 208.465 55.7784 211.773 50.9446C214.447 47.0364 218.538 44.1341 223.235 43.3033C227.708 42.5121 232.394 43.2271 236.121 45.911C240.225 48.8656 242.663 53.8851 243.451 58.789C244.396 64.6699 243.287 71.0221 239.753 75.8975C237.006 79.6411 232.878 82.1318 228.286 82.8157C227.008 83.0147 225.752 83.1229 224.458 83.1194C221.488 98.6137 216.487 113.997 212.407 129.239L204.436 159.026C202.695 165.681 201.145 172.423 199.079 178.986C204.885 181.58 209.874 187.309 212.162 193.186C212.246 193.403 212.321 193.624 212.396 193.844C227.835 187.04 243.719 181.158 259.305 174.69L279.215 166.436C282.263 165.181 285.402 163.564 288.588 162.721C288.634 155.737 289.634 149.316 294.811 144.156C298.077 140.902 302.271 139.173 306.877 139.223C311.605 139.275 316.007 140.955 319.312 144.387C323.305 148.534 325.032 154.663 324.87 160.323C324.764 165.717 322.503 170.844 318.591 174.559C315.208 177.694 310.733 179.38 306.123 179.255C301.481 179.114 297.324 176.597 294.248 173.238C293.239 172.136 292.374 170.972 291.657 169.658C274.727 177.217 257.532 183.907 240.376 190.914C235.315 192.978 230.265 195.074 225.229 197.199C221.949 198.569 218.536 200.171 215.12 201.119C216.076 210.589 215.121 219.963 208.943 227.621C207.294 229.666 205.3 231.549 203.135 233.04C205.665 237.072 207.598 241.63 209.662 245.921C213.218 253.434 216.85 260.909 220.56 268.347L244.308 315.471C247.935 322.718 251.926 329.927 255.229 337.317C261.411 335.055 267.495 334.968 273.537 337.748C277.251 339.456 281.256 342.214 283.858 345.385C286.612 342.825 288.96 339.764 291.441 336.945C294.538 333.427 297.761 330.006 300.959 326.58C312.025 314.777 322.957 302.85 333.753 290.8C342.43 281.081 350.923 271.162 359.709 261.547C357.539 259.457 355.698 256.537 354.268 253.894C350.406 246.758 349.394 237.796 349.446 229.754C349.477 225.071 349.976 220.286 351.396 215.805C355.168 203.902 365.134 192.001 375.191 184.733C383.563 178.683 392.405 174.184 399.004 165.898C406.987 155.873 409.137 144.686 412.74 132.813C414.557 133.735 418.573 135.017 419.449 136.916C419.558 137.151 419.548 137.28 419.562 137.516C416.503 157.116 407.246 171.586 391.28 183.212C379.932 191.476 370.266 197.037 363.113 209.895C360.623 214.37 358.675 219.405 357.887 224.481C356.397 234.091 357.942 245.598 363.864 253.499C370.624 262.518 381.548 268.025 392.571 269.459C399.852 270.407 405.984 268.544 412.905 266.685C427.092 262.874 442.309 258.871 456.475 264.945C462.002 267.315 467.13 270.842 470.826 275.637C476.72 283.286 479.542 295.832 478.23 305.371C476.962 314.589 470.76 323.76 463.416 329.31C458.914 332.713 453.427 334.925 448.29 337.192C426.112 346.979 406.815 350.838 391.095 371.054C381.223 383.748 374.462 404.14 370.548 419.612C366.421 435.924 364.445 452.731 361.024 469.197C358.507 481.309 354.805 492.869 351.068 504.631C349.059 510.955 347.267 517.493 344.666 523.6C341.152 531.852 333.87 545.183 327.654 551.47C324.032 555.135 319.302 557.893 314.764 560.291C307.992 563.87 300.204 565.9 292.525 564.806C280.528 563.097 269.068 555.266 261.964 545.621C254.004 534.815 251.39 520.917 253.397 507.806C254.766 498.86 257.538 489.667 261.361 481.464C265.053 473.543 269.795 466.189 273.802 458.438C280.351 445.769 285.13 430.397 282.037 416.138C281.017 411.4 279.372 406.819 277.143 402.516C276.119 400.523 274.772 398.559 273.988 396.476C269.475 398.87 263.828 399.865 258.775 399.078C251.122 397.887 243.869 393.2 239.396 386.916C234.441 379.957 232.697 370.727 234.175 362.377C235.667 353.499 240.645 345.585 248.003 340.398C244.462 335.042 241.062 326.718 238.139 320.798L219.158 282.617L205.179 254.672C202.277 248.92 198.894 243.044 196.747 236.958C192.828 238.634 188.785 238.886 184.592 239.168C182.144 237.758 177.215 224.939 175.632 221.752C174.384 219.238 173.012 216.739 171.255 214.539C167.736 210.133 163.576 208.31 158.068 207.733C158.346 203.031 159.083 198.081 161.204 193.817C157.239 191.156 153.592 187.631 149.965 184.518L130.651 167.96L83.7965 127.334C79.7373 123.848 75.2818 120.791 71.2731 117.285C66.0405 122.393 59.412 126.341 51.8963 126.221C44.947 126.11 38.0682 122.824 33.2784 117.854C27.1721 111.519 24.1239 102.913 24.338 94.1736C24.5463 85.6755 27.8771 77.2091 34.1051 71.3259C39.5804 66.2 46.8886 63.4949 54.3812 63.8209C61.3929 64.0824 68.2183 67.5819 72.8871 72.7605C78.58 79.075 80.7182 88.3137 80.1829 96.6318C79.8532 101.754 78.3083 106.2 76.0856 110.79C100.484 130.996 124.509 151.648 148.15 172.735C153.543 177.525 159.333 181.878 164.637 186.755C170.406 180.441 175.574 176.617 184.391 176.195C186.874 176.075 189.368 176.177 191.846 176.353C197.349 154.564 203.411 132.939 209.194 111.23C211.93 100.96 214.171 90.4994 217.054 80.2849ZM288.588 352.836C291.84 363.022 292.919 372.826 287.857 382.689C286.105 386.103 283.695 388.918 281.158 391.761C284.519 395.738 288.408 407.619 289.291 412.735C290.078 417.296 290.355 421.975 290.388 426.598C290.518 444.988 283.944 456.546 275.325 472.089C272.282 477.576 269.015 483.055 266.614 488.862C264.513 493.943 263.063 499.423 261.897 504.788C260.687 510.355 259.771 516.291 260.783 521.951C262.661 532.458 268.214 543.564 277.11 549.763C282.877 553.782 292.489 558.757 299.656 557.458C306.812 556.161 316.166 551.623 321.351 546.492C324.45 543.427 326.905 539.673 329.177 535.97C337.56 522.309 341.021 510.466 345.672 495.402C348.197 487.225 350.796 479.02 352.574 470.64C353.374 466.869 353.886 463.03 354.562 459.234C355.373 454.685 356.456 450.189 357.277 445.642C358.66 437.98 359.809 430.287 361.581 422.698C364.85 408.698 373.669 381.843 381.701 369.949C395.543 349.45 415.686 341.654 437.731 332.901C444.206 330.33 451.221 328.024 456.968 324.015C460.405 321.618 463.221 318.472 465.562 315.013C470.238 308.105 471.128 300.65 469.487 292.533C467.937 284.87 463.763 278.628 457.189 274.366C453.291 271.838 448.731 269.958 444.095 269.421C432.378 268.065 417.467 274.215 405.927 276.689C391.38 279.808 377.246 274.888 365.097 266.99C363.577 269.707 361.256 272.22 359.248 274.592C352.87 282.125 345.855 288.999 339.225 296.293L288.588 352.836Z"/>
	<path fill="#232020" transform="scale(2.16673 2.16673)" d="M412.74 132.813C414.557 133.735 418.573 135.017 419.449 136.916C419.558 137.151 419.548 137.28 419.562 137.516C416.503 157.116 407.246 171.586 391.28 183.212C379.932 191.476 370.266 197.037 363.113 209.895C360.623 214.37 358.675 219.405 357.887 224.481C356.397 234.091 357.942 245.598 363.864 253.499C370.624 262.518 381.548 268.025 392.571 269.459C399.852 270.407 405.984 268.544 412.905 266.685C427.092 262.874 442.309 258.871 456.475 264.945C462.002 267.315 467.13 270.842 470.826 275.637C476.72 283.286 479.542 295.832 478.23 305.371C476.962 314.589 470.76 323.76 463.416 329.31C458.914 332.713 453.427 334.925 448.29 337.192C426.112 346.979 406.815 350.838 391.095 371.054C381.223 383.748 374.462 404.14 370.548 419.612C366.421 435.924 364.445 452.731 361.024 469.197C358.507 481.309 354.805 492.869 351.068 504.631C349.059 510.955 347.267 517.493 344.666 523.6C341.152 531.852 333.87 545.183 327.654 551.47C324.032 555.135 319.302 557.893 314.764 560.291C307.992 563.87 300.204 565.9 292.525 564.806C280.528 563.097 269.068 555.266 261.964 545.621C254.004 534.815 251.39 520.917 253.397 507.806C254.766 498.86 257.538 489.667 261.361 481.464C265.053 473.543 269.795 466.189 273.802 458.438C280.351 445.769 285.13 430.397 282.037 416.138C281.017 411.4 279.372 406.819 277.143 402.516C276.119 400.523 274.772 398.559 273.988 396.476C276.215 394.669 278.617 393.089 281.158 391.761C284.519 395.738 288.408 407.619 289.291 412.735C290.078 417.296 290.355 421.975 290.388 426.598C290.518 444.988 283.944 456.546 275.325 472.089C272.282 477.576 269.015 483.055 266.614 488.862C264.513 493.943 263.063 499.423 261.897 504.788C260.687 510.355 259.771 516.291 260.783 521.951C262.661 532.458 268.214 543.564 277.11 549.763C282.877 553.782 292.489 558.757 299.656 557.458C306.812 556.161 316.166 551.623 321.351 546.492C324.45 543.427 326.905 539.673 329.177 535.97C337.56 522.309 341.021 510.466 345.672 495.402C348.197 487.225 350.796 479.02 352.574 470.64C353.374 466.869 353.886 463.03 354.562 459.234C355.373 454.685 356.456 450.189 357.277 445.642C358.66 437.98 359.809 430.287 361.581 422.698C364.85 408.698 373.669 381.843 381.701 369.949C395.543 349.45 415.686 341.654 437.731 332.901C444.206 330.33 451.221 328.024 456.968 324.015C460.405 321.618 463.221 318.472 465.562 315.013C470.238 308.105 471.128 300.65 469.487 292.533C467.937 284.87 463.763 278.628 457.189 274.366C453.291 271.838 448.731 269.958 444.095 269.421C432.378 268.065 417.467 274.215 405.927 276.689C391.38 279.808 377.246 274.888 365.097 266.99C363.577 269.707 361.256 272.22 359.248 274.592C352.87 282.125 345.855 288.999 339.225 296.293L288.588 352.836C286.798 350.483 285.182 348.031 283.858 345.385C286.612 342.825 288.96 339.764 291.441 336.945C294.538 333.427 297.761 330.006 300.959 326.58C312.025 314.777 322.957 302.85 333.753 290.8C342.43 281.081 350.923 271.162 359.709 261.547C357.539 259.457 355.698 256.537 354.268 253.894C350.406 246.758 349.394 237.796 349.446 229.754C349.477 225.071 349.976 220.286 351.396 215.805C355.168 203.902 365.134 192.001 375.191 184.733C383.563 178.683 392.405 174.184 399.004 165.898C406.987 155.873 409.137 144.686 412.74 132.813Z"/>
	<path fill="#232020" transform="scale(2.16673 2.16673)" d="M158.068 207.733C163.576 208.31 167.736 210.133 171.255 214.539C173.012 216.739 174.384 219.238 175.632 221.752C177.215 224.939 182.144 237.758 184.592 239.168C186.977 242.867 191.397 245.21 195.407 246.658C190.884 248.957 186.846 249.834 181.795 250.061C185.286 254.632 187.082 259.847 187.732 265.537C189.249 278.83 183.833 289.396 178.398 300.963C176.805 304.354 175.144 307.77 174.117 311.384C171.179 321.725 171.118 333.182 172.595 343.743C176.278 370.081 192.659 394.761 212.211 412.277C217.678 417.175 223.842 421.439 229.703 425.853C231.44 425.635 233.176 425.336 234.932 425.382C240.625 425.531 246.614 428.345 250.484 432.514C252.181 434.342 253.605 436.821 253.406 439.396C253.053 443.978 245.707 454.574 242.331 457.611C240.16 457.996 237.339 457.687 235.47 459.012C229.848 462.996 230.407 483.235 213.672 493.679C209.213 496.462 204.078 497.75 198.886 496.49C197.244 496.091 195.272 495.396 194.42 493.815C192.412 490.091 200.724 484.045 202.662 480.826C206.512 474.431 206.953 463.473 209.409 456.159C205.855 460.337 202.682 465.29 198.53 468.882C192.471 465.836 188.562 459.112 184.485 453.894C171.218 436.914 159.791 420.339 149.592 401.33C146.855 396.228 143.828 390.94 141.843 385.499C137.979 392.281 134.215 399.067 131.012 406.191C125.583 418.266 121.482 430.92 117.134 443.411C114.432 451.174 111.524 458.829 108.959 466.646C106.067 475.46 103.051 484.194 99.9949 492.951C98.0094 498.64 96.3056 505.22 93.0905 510.324C92.16 511.801 91.0953 513.255 89.2897 513.617C86.5318 514.169 83.2 513.199 80.5723 512.419C77.78 511.59 74.3614 510.605 71.9637 508.956C67.9469 506.194 67.4028 500.318 63.7501 498.209C57.9343 494.85 49.313 499.243 38.7965 492.163C33.2162 488.406 28.8567 482.801 27.5933 476.093C27.0282 473.092 26.4788 468.535 28.4137 465.939C29.0588 465.073 30.0229 464.31 31.1266 464.226C33.3931 464.052 38.0585 469.078 39.8652 470.471C48.6662 477.254 57.5287 475.711 67.7276 474.305C65.7552 473.359 64.0088 472.364 62.2916 471.004C62.9416 462.21 66.6063 453.768 69.3092 445.437C71.3481 439.152 73.2315 432.82 75.395 426.575C82.1791 407.256 89.6524 388.186 97.8003 369.401C100.851 362.317 105.448 355.581 107.85 348.298C109.403 343.589 108.553 338.562 108.765 333.704C109.011 328.064 110.186 321.716 111.744 316.308L111.863 315.903C111.376 316.118 110.884 316.324 110.388 316.519C101.176 320.074 79.3665 327.696 70.3949 328.262C68.6874 328.37 67.2116 328.197 65.6445 327.485C63.7709 326.634 62.3566 325.433 61.0007 323.902C51.9747 313.714 44.4734 301.842 36.3777 290.895C33.4449 286.929 26.2207 279.345 24.8183 275.19C24.5032 274.257 24.5145 273.028 25.0375 272.164C25.6602 271.134 27.9047 270.264 29.0282 269.813C32.8333 268.288 36.9384 267.406 40.8221 266.077C48.4142 263.479 56.3631 259.906 64.2659 258.495C65.7649 259.388 66.947 260.447 68.1282 261.722C72.3709 266.303 76.0664 271.611 80.0164 276.472C86.571 284.538 93.5091 292.532 99.5768 300.966C104.707 298.157 110.403 295.211 114.359 290.838C113.946 287.471 113.21 284.074 112.001 280.9C109.607 274.609 106.186 271.292 99.575 269.887C97.4555 269.437 95.2252 269.115 93.2551 268.173C91.7883 267.472 90.7171 266.374 90.2058 264.818C89.5921 262.95 89.5893 260.74 90.518 258.974C91.7204 256.689 94.3354 255.303 96.7465 254.629C103.295 252.799 109.97 255.245 115.641 258.492C121.388 261.782 126.775 267.112 128.57 273.65C134.998 264.455 142.011 255.315 151.09 248.579C151.126 245.91 151.094 243.241 150.995 240.574C149.437 240.23 147.906 239.888 146.704 238.769C143.777 236.044 143.25 231.512 143.135 227.727C142.966 222.171 143.854 216.127 147.878 211.967C150.558 209.196 154.251 207.826 158.068 207.733ZM137.208 375.252C135.855 372.066 132.934 365.692 134.227 362.134C134.454 361.511 134.601 361.484 135.158 361.189C136.477 361.437 137.295 362.303 138.029 363.391C139.681 365.842 142.555 375.178 143.983 378.541C147.761 387.433 152.25 396.249 157.117 404.597C165.038 418.362 173.8 431.627 183.353 444.314C186.548 448.467 189.823 452.557 193.176 456.582C194.685 458.426 196.455 460.286 197.75 462.275C204.433 455.161 210.477 447.251 216.712 439.732C219.714 436.111 222.598 432.425 226.034 429.195C218.965 424.362 212.184 419.395 205.937 413.522C189.945 398.489 173.174 374.338 169.071 352.427C167.933 346.353 167.324 340.14 167 333.972C161.618 333.085 156.026 331.348 150.531 331.859C145.957 332.877 142.176 334.39 138.266 337.012C129.34 343 124.754 350.631 112.665 349.174C109.468 357.153 105.037 364.633 101.608 372.536C91.8448 395.492 83.1087 418.871 75.4252 442.604C72.8837 450.462 69.8098 458.372 68.0215 466.432C74.2835 469.271 79.806 473.35 85.6677 476.881C89.0884 478.942 95.3327 481.676 97.9193 484.275C101.329 475.572 103.905 466.524 106.817 457.647C109.408 449.747 112.303 441.952 115.065 434.111C121.686 415.313 128.492 397.223 139.372 380.397C138.588 378.709 137.866 376.992 137.208 375.252ZM58.4278 296.27C60.5115 301.48 62.0509 306.814 63.563 312.213C64.6916 316.242 65.578 320.355 67.4713 324.11C76.8111 322.976 86.0374 319.592 94.9608 316.708C99.9609 315.092 105.131 313.636 109.945 311.527C113.372 310.022 116.629 308.158 119.661 305.965C126.907 300.667 132.91 293.207 139.35 286.953C142.458 283.902 154.217 273.09 158.33 273.241C159.031 273.267 159.615 273.562 160.003 274.156C160.37 274.717 160.431 275.479 160.194 276.091C159.194 278.676 152.046 282.281 149.6 284.255C141.121 291.099 134.266 299.478 126.411 306.939C123.824 309.397 119.412 311.239 117.512 314.114C115.538 317.101 112.657 339.458 113.708 343.05C113.885 343.657 114.218 344.155 114.79 344.462C116.325 345.286 118.999 344.266 120.496 343.644C124.418 342.015 127.635 339.193 130.914 336.567C144.272 325.869 150.628 326.433 166.669 328.835C167.499 322.397 167.439 315.629 169.489 309.42C170.736 305.644 172.594 302.103 174.348 298.547C179.755 287.581 184.729 276.494 182.431 263.934C181.803 260.504 180.811 256.725 178.619 253.938C176.155 250.806 171.95 248.781 168.018 248.383C167.131 248.294 166.213 248.232 165.322 248.257C154.737 249.329 147.393 257.285 141.029 265.11C137.104 269.937 133.775 275.194 130.068 280.182C117.245 297.44 108.008 302.65 88.9515 311.404C84.3305 313.526 78.8944 317.47 73.8701 318.082C72.9093 318.199 72.0049 318.176 71.1869 317.608C68.7522 315.919 65.2543 306.761 63.5276 303.649C62.2245 301.301 60.7999 299.012 59.0406 296.978C58.8362 296.742 58.6348 296.504 58.4278 296.27ZM119.632 285.328C121.549 283.161 123.516 281.022 125.382 278.812C121.847 270.36 117.218 264.019 108.488 260.442C105.802 259.342 102.752 258.501 99.8284 258.649C98.13 259.137 95.6095 260.336 94.789 262.017C94.584 262.437 94.6463 262.55 94.6803 262.99C96.2096 265.061 105.414 265.052 110.001 268.937C113.071 271.538 115.201 275.41 116.733 279.073C117.377 280.613 118.045 284.558 119.166 285.52L119.632 285.328ZM159.159 232.961C157.161 227.633 155.793 219.028 150.556 215.825C148.324 220.479 146.662 227.661 148.517 232.695C148.981 233.953 149.825 235.034 151.099 235.536C152.632 236.141 154.119 235.67 155.621 235.246C156.817 234.506 158.002 233.764 159.159 232.961ZM248.726 439.399C245.971 434.803 242.412 431.867 237.137 430.52C235.929 430.212 234.619 429.94 233.368 429.988C226.783 432.751 218.821 445.713 216.156 452.209C210.914 464.985 212.27 484.071 199.203 492.182C204.417 492.283 207.496 491.834 211.869 488.836C215.565 485.961 218.999 482.895 221.308 478.758C225.417 471.396 225.894 457.739 234.512 454.083C236.231 453.354 238.121 453.248 239.959 453.067C243.317 448.809 246.029 444.09 248.726 439.399ZM155.895 240.366C155.786 242.091 155.741 243.855 155.489 245.564L157.847 245.011L162.849 243.783C162.152 242.105 161.441 240.432 160.718 238.765C160.519 238.706 160.169 238.562 159.967 238.559C158.605 239.129 157.185 239.646 155.895 240.366ZM59.4456 314.455C57.9107 309.307 51.8866 297.035 54.5825 292.324C54.9581 291.667 55.5348 291.174 56.2863 291.011C56.7444 290.912 57.2214 290.875 57.6877 290.836C62.9973 292.617 66.1037 297.181 68.5245 302.013C70.4213 305.8 72.3257 309.661 74.0452 313.532C79.7276 309.745 88.8056 305.246 95.3662 303.49L74.0254 276.77C70.7161 272.616 67.5888 268.058 64.0877 264.099C63.7248 263.688 63.664 263.629 63.1382 263.506C56.9551 265.845 50.5898 267.81 44.3151 269.896C39.7032 271.43 35.0074 273.242 30.2849 274.382C36.9095 283.14 43.4036 291.995 49.7653 300.945C52.9724 305.413 56.0075 310.181 59.4456 314.455ZM73.3844 504.084C77.8186 506.661 82.8149 507.873 87.7128 509.251C89.2384 506.521 90.5807 503.795 91.7475 500.888C93.2999 496.737 94.9202 492.597 96.2619 488.373C89.0791 485.032 82.3923 480.746 75.7054 476.528C66.3131 480.672 53.2011 482.286 43.5773 478.498C39.9645 477.075 37.6851 475.251 34.9727 472.521C34.1639 471.707 33.3399 470.66 32.3082 470.139C31.851 475.176 33.4264 479.592 36.6543 483.461C40.5988 488.188 46.7086 491.606 52.881 492.074C58.0648 492.468 64.9023 490.888 68.7961 495.253C70.9589 497.678 72.0688 501.154 73.3844 504.084Z"/>
	<path fill="#DA6D58" transform="scale(2.16673 2.16673)" d="M431.447 380.08L431.753 380.031C437.573 379.149 443.933 380.962 448.619 384.464C454.129 388.646 457.773 394.829 458.761 401.676C459.92 409.459 457.859 417.378 453.055 423.609C448.833 429.109 443.334 432.054 436.532 432.94C430.552 433.354 424.997 431.833 420.19 428.199C414.765 424.08 411.208 417.964 410.312 411.211C409.271 403.394 410.869 395.52 415.719 389.193C419.531 384.172 425.196 380.89 431.447 380.08Z"/>
	<path fill="#DA6D58" transform="scale(2.16673 2.16673)" d="M412.74 132.813C407.121 127.587 404.481 122.44 404.24 114.758C404.014 107.557 406.668 101.085 411.625 95.9038C415.869 91.4678 422.2 88.4539 428.377 88.4025C434.536 88.3512 440.788 90.9209 445.183 95.2389C449.935 99.9085 452.574 106.877 452.621 113.491C452.671 120.557 450.07 127.272 445.034 132.245C440.576 136.648 434.434 139.377 428.124 139.302C425.482 139.27 421.854 138.907 419.562 137.516C419.548 137.28 419.558 137.151 419.449 136.916C418.573 135.017 414.557 133.735 412.74 132.813Z"/>
	<path fill="#DA6D58" transform="scale(2.16673 2.16673)" d="M417.049 14.881C424.513 14.2902 432.539 15.2918 439.758 17.2277C441.661 17.7382 444.194 18.5936 445.146 20.454C445.562 21.2665 445.626 22.3352 445.292 23.1891C444.398 25.4755 440.513 25.0351 438.573 24.7048C434.412 23.9964 430.33 22.9176 426.135 22.3826C413.27 20.7421 400.376 23.2103 388.403 27.9477C366.883 36.4628 352.764 52.4925 343.742 73.3966C342.719 76.2653 341.895 79.2013 341.276 82.1837C340.64 85.1492 340.277 88.6454 338.992 91.4017C338.384 92.7057 337.653 93.2641 336.276 93.719C335.461 93.9884 334.63 94.0999 333.874 93.5891C332.555 92.6991 332.209 90.5288 332.091 89.0489C331.44 80.8371 338.275 65.0323 342.402 57.9149C344.631 54.0702 347.346 50.4061 350.219 47.0195C354.374 42.1215 359.128 37.6568 364.095 33.5939C380.947 19.8078 395.823 16.6061 417.049 14.881Z"/>
	<path fill="#DA6D58" transform="scale(2.16673 2.16673)" d="M415.042 39.497C422.066 39.1173 430.56 40.2004 437.126 42.7541C438.561 43.3125 439.833 43.9988 440.436 45.4959C440.762 46.3032 440.79 47.2406 440.37 48.0208C438.442 51.6011 429.792 48.47 426.665 47.8549C424.42 47.3901 422.141 47.1134 419.85 47.0277C414.232 46.8465 408.63 47.7068 403.326 49.5652C387.708 55.0084 376.073 65.1472 368.831 80.0902C366.595 84.4706 366.322 89.5438 364.492 94.0622C364.057 95.1361 363.355 96.5858 362.179 97.0101C361.275 97.3365 359.489 97.4246 358.645 96.8779C357.745 96.2945 357.363 95.4169 357.223 94.3806C356.492 88.9754 361.332 77.6598 364.006 72.6924C365.633 69.6819 367.521 66.8194 369.647 64.1376C380.62 50.2343 397.582 41.5162 415.042 39.497Z"/>
	<path fill="#DA6D58" transform="scale(2.16673 2.16673)" d="M416.191 65.2512C420.616 65.0307 426.487 64.4129 430.672 65.9596C431.711 66.3433 432.83 66.9843 433.282 68.0525C433.628 68.8718 433.588 69.9263 433.173 70.7151C431.424 74.0382 423.875 72.0311 420.867 72.0386C418.196 72.0706 415.545 72.4983 412.999 73.3076C403.326 76.3956 396.181 84.1799 391.618 92.9825C391.048 94.4947 390.495 96.0242 389.861 97.5105C389.178 99.1109 388.118 100.964 386.381 101.572C385.216 101.98 384.125 101.695 383.054 101.178C382.572 100.588 382.34 100.168 382.247 99.4C381.517 93.4109 386.262 86.045 389.688 81.5574C396.302 72.8932 405.27 66.7224 416.191 65.2512Z"/>
</svg>
