<svg width="536" height="605" viewBox="0 0 536 605" fill="none" xmlns="http://www.w3.org/2000/svg">
<g clip-path="url(#clip0_1213_3582)">
<path d="M267.471 236.928C275.738 239.222 286.617 246.928 294.372 251.344C305.107 257.458 316.025 263.147 326.446 269.806C326.857 277.394 326.526 285.159 326.519 292.768L326.476 335.043C317.084 341.122 307.103 346.364 297.425 351.978C288.148 357.36 278.61 363.788 268.654 367.796C259.777 365.048 218.767 341.21 210.052 335.013L209.598 269.886C216.948 264.786 225.189 260.574 232.963 256.145C244.399 249.631 255.75 242.918 267.471 236.928ZM233.493 283.4C233.594 296.135 233.618 308.871 233.565 321.606C241.204 325.418 248.506 329.881 255.873 334.186C260.097 336.654 264.559 338.917 268.666 341.555C279.555 334.367 290.992 327.798 302.512 321.671L302.397 283.244C294.811 278.719 275.114 266.242 267.989 263.828C256.487 270.336 244.86 276.661 233.493 283.4Z" fill="black"/>
<path d="M266.407 -0.0782384C271.891 -0.868238 289.786 11.9258 295.04 15.3958C263.677 27.7508 235.768 44.2828 211.89 68.2058C177.495 102.663 154.291 147.529 148.854 196.191C146.218 219.778 147.043 243.824 147.118 267.527L147.495 372.125L147.392 374.53L146.717 374.746C138.511 369.476 130.313 363.311 123.555 356.276C124.419 324.918 123.705 293.427 123.603 262.057C123.489 226.776 123.134 191.753 132.371 157.401C145.822 107.378 178.893 61.4688 219.661 29.9718C234.334 18.6368 250.379 9.18076 266.407 -0.0782384Z" fill="black"/>
<path d="M388.756 231.619C396.971 235.948 404.603 242.111 412.001 247.687L411.961 336.452C412.021 364.456 413.071 392.732 408.685 420.492C398.972 485.018 363.474 542.836 310.328 580.697C303.875 585.383 272.341 606.234 266.296 605.284C258.39 600.405 250.432 595.588 242.188 591.299C249.674 587.543 257.491 584.451 264.996 580.72C282.669 571.924 299.105 560.835 313.878 547.74C353.741 512.792 379.536 464.54 386.454 411.98C388.98 391.62 388.469 370.723 388.394 350.237L388.389 272.828C388.434 259.144 387.964 245.264 388.756 231.619Z" fill="black"/>
<path d="M332.512 147.277C332.731 147.29 332.951 147.296 333.169 147.317C338.567 147.835 356.569 159.081 362.469 162.373C376.017 169.934 389.879 177.041 403.195 184.993C434.327 203.584 462.625 226.96 484.571 255.987C519.909 302.289 538.048 359.438 535.88 417.643C535.493 428.081 534.136 438.357 532.696 448.694C523.193 454.885 512.782 460.18 503.01 466.004L504.976 458.249C516.776 415.562 513.215 368.548 497.331 327.44C478.638 279.062 446.774 241.309 403.357 213.246C388.23 203.469 372.185 195.127 356.377 186.518C336.997 175.965 317.655 164.319 297.473 155.41C307.771 150.266 321.037 147.836 332.512 147.277Z" fill="black"/>
<path d="M29.3893 141.432C29.6203 141.832 29.7204 142.276 29.7104 142.744C29.6134 146.922 28.3444 151.711 27.7014 155.877C26.3824 164.42 25.2584 172.852 24.8004 181.493C23.3114 207.389 26.0224 233.355 32.8274 258.386C38.9154 279.489 47.8274 299.673 59.3194 318.39C77.8824 349.391 103.492 375.579 134.071 394.829C147.43 403.181 161.55 410.299 175.382 417.823C196.379 429.197 217.248 440.804 237.986 452.643C229.746 455.015 221.584 457.315 213.122 458.787C209.776 459.317 206.445 459.929 203.13 460.624C194.591 456.11 186.445 450.78 177.884 446.235C133.524 422.69 105.3 409.298 70.8744 371.66C61.4604 361.367 52.5293 350.908 44.8993 339.21C14.8033 293.069 1.85135 245.207 1.60135 190.294C1.56535 182.397 1.11336 165.743 2.87636 158.613C3.19336 157.334 3.67835 156.644 4.69235 155.796C9.46335 151.802 23.1663 144.99 29.3893 141.432Z" fill="black"/>
<path d="M348.649 98.2792C363.548 97.0082 379.455 98.7172 394.185 101.003C449.863 109.643 489.801 132.15 533.527 166.82C528.856 173.939 524.375 181.182 520.09 188.54C510.559 180.4 500.953 171.958 490.72 164.722C477.917 155.774 464.223 148.174 449.855 142.045C417.906 128.074 388.482 122.474 353.627 122.475C296.959 121.81 252.255 148.042 204.442 174.749C194.063 180.547 183.805 187.068 173.059 192.124C173.987 182.531 176.555 167.386 183.219 160.194C190.065 152.806 202.333 148.521 211.132 143.749C257.326 118.701 295.166 100.456 348.649 98.2792Z" fill="black"/>
<path d="M360.673 413.83C361.303 414.057 360.925 413.867 361.669 414.617C362.107 420.825 357.676 440.024 353.603 445.079C349.275 450.45 337.114 455.956 330.922 459.443C293.384 480.585 254.334 500.392 211.004 506.023C156.346 513.127 98.3507 501.22 50.2477 474.467C34.1387 465.507 19.3577 454.738 4.79372 443.482L-0.113281 439.599C5.22772 433.725 10.4407 427.538 16.2277 422.104C49.5787 447.895 80.9667 467.173 122.298 477.509C217.752 501.382 282.085 461.145 360.673 413.83Z" fill="black"/>
<path d="M481.375 351.467C484.538 357.46 485.675 368.34 487.009 375.229C471.301 384.923 454.956 394.066 438.767 402.943L434.184 405.246C435.21 396.121 435.523 387.069 435.617 377.892C449.131 367.777 466.205 359.008 481.375 351.467Z" fill="black"/>
<path d="M100.332 199.949C101.441 204.363 98.7183 222.79 98.2643 228.76C93.5723 232.173 88.0563 234.758 83.0333 237.701C75.6733 242.013 64.6533 249.781 56.9753 252.453C55.8473 251.456 55.7083 250.011 55.3703 248.609C53.8833 241.927 52.6043 235.297 51.5703 228.532C67.4633 218.387 83.8953 209.171 100.332 199.949Z" fill="black"/>
</g>
<defs>
<clipPath id="clip0_1213_3582">
<rect width="536" height="605" fill="white"/>
</clipPath>
</defs>
</svg>
